<?xml version="1.0" encoding="UTF-8" standalone="no"?>
<!DOCTYPE svg PUBLIC "-//W3C//DTD SVG 1.1//EN"
 "http://www.w3.org/Graphics/SVG/1.1/DTD/svg11.dtd">
<!-- Generated by graphviz version 2.26.3 (20100126.1600)
 -->
<!-- Title: _anonymous_0 Pages: 1 -->
<svg width="316pt" height="499pt"
 viewBox="0.00 0.00 316.00 499.00" xmlns="http://www.w3.org/2000/svg" xmlns:xlink="http://www.w3.org/1999/xlink">
<g id="graph1" class="graph" transform="scale(1 1) rotate(0) translate(4 495)">
<title>_anonymous_0</title>
<polygon fill="white" stroke="white" points="-4,5 -4,-495 313,-495 313,5 -4,5"/>
<!-- ActionActivityAssignment -->
<g id="node1" class="node"><title>ActionActivityAssignment</title>
<polygon fill="none" stroke="black" points="3,-57 3,-187 195,-187 195,-57 3,-57"/>
<text text-anchor="middle" x="99" y="-170.4" font-family="Times Roman,serif" font-size="14.00">ActionActivityAssignment</text>
<polyline fill="none" stroke="black" points="3,-161 195,-161 "/>
<text text-anchor="middle" x="99" y="-144.4" font-family="Times Roman,serif" font-size="14.00">id</text>
<polyline fill="none" stroke="black" points="3,-135 195,-135 "/>
<text text-anchor="middle" x="99" y="-118.4" font-family="Times Roman,serif" font-size="14.00">uuid</text>
<polyline fill="none" stroke="black" points="3,-109 195,-109 "/>
<text text-anchor="middle" x="99" y="-92.4" font-family="Times Roman,serif" font-size="14.00">action_uuid</text>
<polyline fill="none" stroke="black" points="3,-83 195,-83 "/>
<text text-anchor="middle" x="99" y="-66.4" font-family="Times Roman,serif" font-size="14.00">activity_uuid</text>
</g>
<!-- Activity -->
<g id="node2" class="node"><title>Activity</title>
<polygon fill="none" stroke="lightgray" points="305,-144 237,-144 237,-108 305,-108 305,-144"/>
<text text-anchor="middle" x="271" y="-122.4" font-family="Times Roman,serif" font-size="14.00">Activity</text>
</g>
<!-- ActionActivityAssignment&#45;&gt;Activity -->
<g id="edge2" class="edge"><title>ActionActivityAssignment&#45;&gt;Activity</title>
<path fill="none" stroke="black" d="M195.058,-124.234C205.908,-124.486 216.541,-124.734 226.255,-124.959"/>
<polygon fill="black" stroke="black" points="226.321,-128.462 236.4,-125.195 226.484,-121.464 226.321,-128.462"/>
</g>
<!-- Action -->
<g id="node4" class="node"><title>Action</title>
<polygon fill="none" stroke="lightgray" points="301,-90 241,-90 241,-54 301,-54 301,-90"/>
<text text-anchor="middle" x="271" y="-68.4" font-family="Times Roman,serif" font-size="14.00">Action</text>
</g>
<!-- ActionActivityAssignment&#45;&gt;Action -->
<g id="edge4" class="edge"><title>ActionActivityAssignment&#45;&gt;Action</title>
<path fill="none" stroke="black" d="M195.058,-94.0763C207.783,-90.3769 220.211,-86.7642 231.206,-83.568"/>
<polygon fill="black" stroke="black" points="232.242,-86.9118 240.868,-80.7594 230.288,-80.19 232.242,-86.9118"/>
</g>
<!-- Group -->
<g id="node6" class="node"><title>Group</title>
<polygon fill="none" stroke="lightgray" points="300,-329 242,-329 242,-293 300,-293 300,-329"/>
<text text-anchor="middle" x="271" y="-307.4" font-family="Times Roman,serif" font-size="14.00">Group</text>
</g>
<!-- ActionSecurityAssignment -->
<g id="node7" class="node"><title>ActionSecurityAssignment</title>
<polygon fill="none" stroke="lightgray" points="197,-37 1,-37 1,-1 197,-1 197,-37"/>
<text text-anchor="middle" x="99" y="-15.4" font-family="Times Roman,serif" font-size="14.00">ActionSecurityAssignment</text>
</g>
<!-- ActionSecurityAssignment&#45;&gt;Action -->
<g id="edge8" class="edge"><title>ActionSecurityAssignment&#45;&gt;Action</title>
<path fill="none" stroke="black" d="M161.675,-37.0231C173.75,-40.5906 186.284,-44.3593 198,-48 208.827,-51.3646 220.51,-55.1402 231.288,-58.6831"/>
<polygon fill="black" stroke="black" points="230.288,-62.0387 240.882,-61.8529 232.485,-55.3922 230.288,-62.0387"/>
</g>
<!-- Security -->
<g id="node8" class="node"><title>Security</title>
<polygon fill="none" stroke="lightgray" points="308,-36 234,-36 234,-1.06581e-14 308,-0 308,-36"/>
<text text-anchor="middle" x="271" y="-14.4" font-family="Times Roman,serif" font-size="14.00">Security</text>
</g>
<!-- ActionSecurityAssignment&#45;&gt;Security -->
<g id="edge6" class="edge"><title>ActionSecurityAssignment&#45;&gt;Security</title>
<path fill="none" stroke="black" d="M197.558,-18.427C206.635,-18.3742 215.522,-18.3225 223.802,-18.2744"/>
<polygon fill="black" stroke="black" points="223.954,-21.7737 233.933,-18.2155 223.913,-14.7738 223.954,-21.7737"/>
</g>
<!-- Object -->
<g id="node11" class="node"><title>Object</title>
<polygon fill="none" stroke="lightgray" points="301,-437 241,-437 241,-401 301,-401 301,-437"/>
<text text-anchor="middle" x="271" y="-415.4" font-family="Times Roman,serif" font-size="14.00">Object</text>
</g>
<!-- SubjectGroupAssignment -->
<g id="node12" class="node"><title>SubjectGroupAssignment</title>
<polygon fill="none" stroke="lightgray" points="194,-305 4,-305 4,-269 194,-269 194,-305"/>
<text text-anchor="middle" x="99" y="-283.4" font-family="Times Roman,serif" font-size="14.00">SubjectGroupAssignment</text>
</g>
<!-- SubjectGroupAssignment&#45;&gt;Group -->
<g id="edge12" class="edge"><title>SubjectGroupAssignment&#45;&gt;Group</title>
<path fill="none" stroke="black" d="M194.055,-300.264C207.142,-302.09 219.945,-303.876 231.236,-305.452"/>
<polygon fill="black" stroke="black" points="230.756,-308.918 241.144,-306.834 231.724,-301.986 230.756,-308.918"/>
</g>
<!-- Subject -->
<g id="node13" class="node"><title>Subject</title>
<polygon fill="none" stroke="lightgray" points="305,-275 237,-275 237,-239 305,-239 305,-275"/>
<text text-anchor="middle" x="271" y="-253.4" font-family="Times Roman,serif" font-size="14.00">Subject</text>
</g>
<!-- SubjectGroupAssignment&#45;&gt;Subject -->
<g id="edge10" class="edge"><title>SubjectGroupAssignment&#45;&gt;Subject</title>
<path fill="none" stroke="black" d="M194.055,-270.421C205.357,-268.449 216.448,-266.515 226.536,-264.755"/>
<polygon fill="black" stroke="black" points="227.402,-268.157 236.652,-262.991 226.199,-261.261 227.402,-268.157"/>
</g>
<!-- Role -->
<g id="node16" class="node"><title>Role</title>
<polygon fill="none" stroke="lightgray" points="298,-221 244,-221 244,-185 298,-185 298,-221"/>
<text text-anchor="middle" x="271" y="-199.4" font-family="Times Roman,serif" font-size="14.00">Role</text>
</g>
<!-- ObjectTypeAssignment -->
<g id="node17" class="node"><title>ObjectTypeAssignment</title>
<polygon fill="none" stroke="lightgray" points="185,-464 13,-464 13,-428 185,-428 185,-464"/>
<text text-anchor="middle" x="99" y="-442.4" font-family="Times Roman,serif" font-size="14.00">ObjectTypeAssignment</text>
</g>
<!-- ObjectTypeAssignment&#45;&gt;Object -->
<g id="edge16" class="edge"><title>ObjectTypeAssignment&#45;&gt;Object</title>
<path fill="none" stroke="black" d="M185.504,-432.421C201.236,-429.951 216.946,-427.485 230.528,-425.353"/>
<polygon fill="black" stroke="black" points="231.127,-428.802 240.464,-423.794 230.042,-421.887 231.127,-428.802"/>
</g>
<!-- Type -->
<g id="node18" class="node"><title>Type</title>
<polygon fill="none" stroke="lightgray" points="298,-491 244,-491 244,-455 298,-455 298,-491"/>
<text text-anchor="middle" x="271" y="-469.4" font-family="Times Roman,serif" font-size="14.00">Type</text>
</g>
<!-- ObjectTypeAssignment&#45;&gt;Type -->
<g id="edge14" class="edge"><title>ObjectTypeAssignment&#45;&gt;Type</title>
<path fill="none" stroke="black" d="M185.504,-459.579C202.602,-462.263 219.674,-464.943 234.016,-467.194"/>
<polygon fill="black" stroke="black" points="233.515,-470.659 243.937,-468.752 234.601,-463.743 233.515,-470.659"/>
</g>
<!-- Size -->
<g id="node21" class="node"><title>Size</title>
<polygon fill="none" stroke="lightgray" points="298,-383 244,-383 244,-347 298,-347 298,-383"/>
<text text-anchor="middle" x="271" y="-361.4" font-family="Times Roman,serif" font-size="14.00">Size</text>
</g>
<!-- ObjectSizeAssignment -->
<g id="node22" class="node"><title>ObjectSizeAssignment</title>
<polygon fill="none" stroke="lightgray" points="184,-410 14,-410 14,-374 184,-374 184,-410"/>
<text text-anchor="middle" x="99" y="-388.4" font-family="Times Roman,serif" font-size="14.00">ObjectSizeAssignment</text>
</g>
<!-- ObjectSizeAssignment&#45;&gt;Object -->
<g id="edge20" class="edge"><title>ObjectSizeAssignment&#45;&gt;Object</title>
<path fill="none" stroke="black" d="M184.244,-405.381C200.265,-407.896 216.321,-410.417 230.188,-412.593"/>
<polygon fill="black" stroke="black" points="229.906,-416.092 240.328,-414.185 230.992,-409.177 229.906,-416.092"/>
</g>
<!-- ObjectSizeAssignment&#45;&gt;Size -->
<g id="edge18" class="edge"><title>ObjectSizeAssignment&#45;&gt;Size</title>
<path fill="none" stroke="black" d="M184.244,-378.619C201.646,-375.887 219.089,-373.149 233.722,-370.852"/>
<polygon fill="black" stroke="black" points="234.505,-374.272 243.841,-369.263 233.419,-367.357 234.505,-374.272"/>
</g>
<!-- SubjectRoleAssignment -->
<g id="node25" class="node"><title>SubjectRoleAssignment</title>
<polygon fill="none" stroke="lightgray" points="187,-244 11,-244 11,-208 187,-208 187,-244"/>
<text text-anchor="middle" x="99" y="-222.4" font-family="Times Roman,serif" font-size="14.00">SubjectRoleAssignment</text>
</g>
<!-- SubjectRoleAssignment&#45;&gt;Subject -->
<g id="edge22" class="edge"><title>SubjectRoleAssignment&#45;&gt;Subject</title>
<path fill="none" stroke="black" d="M187.519,-241.954C201.281,-244.434 214.956,-246.899 227.135,-249.094"/>
<polygon fill="black" stroke="black" points="226.519,-252.539 236.981,-250.869 227.761,-245.65 226.519,-252.539"/>
</g>
<!-- SubjectRoleAssignment&#45;&gt;Role -->
<g id="edge24" class="edge"><title>SubjectRoleAssignment&#45;&gt;Role</title>
<path fill="none" stroke="black" d="M187.519,-214.163C203.917,-211.97 220.193,-209.794 233.96,-207.953"/>
<polygon fill="black" stroke="black" points="234.51,-211.411 243.958,-206.616 233.582,-204.472 234.51,-211.411"/>
</g>
</g>
</svg>
