<?xml version="1.0" encoding="UTF-8" standalone="no"?>
<!DOCTYPE svg PUBLIC "-//W3C//DTD SVG 1.1//EN"
 "http://www.w3.org/Graphics/SVG/1.1/DTD/svg11.dtd">
<!-- Generated by graphviz version 2.26.3 (20100126.1600)
 -->
<!-- Title: _anonymous_0 Pages: 1 -->
<svg width="344pt" height="1816pt"
 viewBox="0.00 0.00 344.00 1816.00" xmlns="http://www.w3.org/2000/svg" xmlns:xlink="http://www.w3.org/1999/xlink">
<g id="graph1" class="graph" transform="scale(1 1) rotate(0) translate(4 1812)">
<title>_anonymous_0</title>
<polygon fill="white" stroke="white" points="-4,5 -4,-1812 341,-1812 341,5 -4,5"/>
<!-- ActionActivityAssignment -->
<g id="node1" class="node"><title>ActionActivityAssignment</title>
<polygon fill="none" stroke="black" points="3,-326 3,-456 195,-456 195,-326 3,-326"/>
<text text-anchor="middle" x="99" y="-439.4" font-family="Times Roman,serif" font-size="14.00">ActionActivityAssignment</text>
<polyline fill="none" stroke="black" points="3,-430 195,-430 "/>
<text text-anchor="middle" x="99" y="-413.4" font-family="Times Roman,serif" font-size="14.00">id</text>
<polyline fill="none" stroke="black" points="3,-404 195,-404 "/>
<text text-anchor="middle" x="99" y="-387.4" font-family="Times Roman,serif" font-size="14.00">uuid</text>
<polyline fill="none" stroke="black" points="3,-378 195,-378 "/>
<text text-anchor="middle" x="99" y="-361.4" font-family="Times Roman,serif" font-size="14.00">action_uuid</text>
<polyline fill="none" stroke="black" points="3,-352 195,-352 "/>
<text text-anchor="middle" x="99" y="-335.4" font-family="Times Roman,serif" font-size="14.00">activity_uuid</text>
</g>
<!-- Activity -->
<g id="node2" class="node"><title>Activity</title>
<polygon fill="none" stroke="black" points="239,-400 239,-556 331,-556 331,-400 239,-400"/>
<text text-anchor="middle" x="285" y="-539.4" font-family="Times Roman,serif" font-size="14.00">Activity</text>
<polyline fill="none" stroke="black" points="239,-530 331,-530 "/>
<text text-anchor="middle" x="285" y="-513.4" font-family="Times Roman,serif" font-size="14.00">id</text>
<polyline fill="none" stroke="black" points="239,-504 331,-504 "/>
<text text-anchor="middle" x="285" y="-487.4" font-family="Times Roman,serif" font-size="14.00">uuid</text>
<polyline fill="none" stroke="black" points="239,-478 331,-478 "/>
<text text-anchor="middle" x="285" y="-461.4" font-family="Times Roman,serif" font-size="14.00">name</text>
<polyline fill="none" stroke="black" points="239,-452 331,-452 "/>
<text text-anchor="middle" x="285" y="-435.4" font-family="Times Roman,serif" font-size="14.00">description</text>
<polyline fill="none" stroke="black" points="239,-426 331,-426 "/>
<text text-anchor="middle" x="285" y="-409.4" font-family="Times Roman,serif" font-size="14.00">enabled</text>
</g>
<!-- ActionActivityAssignment&#45;&gt;Activity -->
<g id="edge2" class="edge"><title>ActionActivityAssignment&#45;&gt;Activity</title>
<path fill="none" stroke="black" d="M195.269,-436.029C206.924,-441.481 218.511,-446.9 229.295,-451.945"/>
<polygon fill="black" stroke="black" points="228.007,-455.206 238.548,-456.272 230.973,-448.865 228.007,-455.206"/>
</g>
<!-- Action -->
<g id="node4" class="node"><title>Action</title>
<polygon fill="none" stroke="black" points="239,-226 239,-382 331,-382 331,-226 239,-226"/>
<text text-anchor="middle" x="285" y="-365.4" font-family="Times Roman,serif" font-size="14.00">Action</text>
<polyline fill="none" stroke="black" points="239,-356 331,-356 "/>
<text text-anchor="middle" x="285" y="-339.4" font-family="Times Roman,serif" font-size="14.00">id</text>
<polyline fill="none" stroke="black" points="239,-330 331,-330 "/>
<text text-anchor="middle" x="285" y="-313.4" font-family="Times Roman,serif" font-size="14.00">uuid</text>
<polyline fill="none" stroke="black" points="239,-304 331,-304 "/>
<text text-anchor="middle" x="285" y="-287.4" font-family="Times Roman,serif" font-size="14.00">name</text>
<polyline fill="none" stroke="black" points="239,-278 331,-278 "/>
<text text-anchor="middle" x="285" y="-261.4" font-family="Times Roman,serif" font-size="14.00">description</text>
<polyline fill="none" stroke="black" points="239,-252 331,-252 "/>
<text text-anchor="middle" x="285" y="-235.4" font-family="Times Roman,serif" font-size="14.00">enabled</text>
</g>
<!-- ActionActivityAssignment&#45;&gt;Action -->
<g id="edge4" class="edge"><title>ActionActivityAssignment&#45;&gt;Action</title>
<path fill="none" stroke="black" d="M195.269,-345.971C206.924,-340.519 218.511,-335.1 229.295,-330.055"/>
<polygon fill="black" stroke="black" points="230.973,-333.135 238.548,-325.728 228.007,-326.794 230.973,-333.135"/>
</g>
<!-- Group -->
<g id="node6" class="node"><title>Group</title>
<polygon fill="none" stroke="black" points="234.5,-1052 234.5,-1234 335.5,-1234 335.5,-1052 234.5,-1052"/>
<text text-anchor="middle" x="285" y="-1217.4" font-family="Times Roman,serif" font-size="14.00">Group</text>
<polyline fill="none" stroke="black" points="234.5,-1208 335.5,-1208 "/>
<text text-anchor="middle" x="285" y="-1191.4" font-family="Times Roman,serif" font-size="14.00">id</text>
<polyline fill="none" stroke="black" points="234.5,-1182 335.5,-1182 "/>
<text text-anchor="middle" x="285" y="-1165.4" font-family="Times Roman,serif" font-size="14.00">uuid</text>
<polyline fill="none" stroke="black" points="234.5,-1156 335.5,-1156 "/>
<text text-anchor="middle" x="285" y="-1139.4" font-family="Times Roman,serif" font-size="14.00">name</text>
<polyline fill="none" stroke="black" points="234.5,-1130 335.5,-1130 "/>
<text text-anchor="middle" x="285" y="-1113.4" font-family="Times Roman,serif" font-size="14.00">tenant_uuid</text>
<polyline fill="none" stroke="black" points="234.5,-1104 335.5,-1104 "/>
<text text-anchor="middle" x="285" y="-1087.4" font-family="Times Roman,serif" font-size="14.00">description</text>
<polyline fill="none" stroke="black" points="234.5,-1078 335.5,-1078 "/>
<text text-anchor="middle" x="285" y="-1061.4" font-family="Times Roman,serif" font-size="14.00">enabled</text>
</g>
<!-- ActionSecurityAssignment -->
<g id="node7" class="node"><title>ActionSecurityAssignment</title>
<polygon fill="none" stroke="black" points="0.5,-65 0.5,-195 197.5,-195 197.5,-65 0.5,-65"/>
<text text-anchor="middle" x="99" y="-178.4" font-family="Times Roman,serif" font-size="14.00">ActionSecurityAssignment</text>
<polyline fill="none" stroke="black" points="0.5,-169 197.5,-169 "/>
<text text-anchor="middle" x="99" y="-152.4" font-family="Times Roman,serif" font-size="14.00">id</text>
<polyline fill="none" stroke="black" points="0.5,-143 197.5,-143 "/>
<text text-anchor="middle" x="99" y="-126.4" font-family="Times Roman,serif" font-size="14.00">uuid</text>
<polyline fill="none" stroke="black" points="0.5,-117 197.5,-117 "/>
<text text-anchor="middle" x="99" y="-100.4" font-family="Times Roman,serif" font-size="14.00">action_uuid</text>
<polyline fill="none" stroke="black" points="0.5,-91 197.5,-91 "/>
<text text-anchor="middle" x="99" y="-74.4" font-family="Times Roman,serif" font-size="14.00">security_uuid</text>
</g>
<!-- ActionSecurityAssignment&#45;&gt;Action -->
<g id="edge8" class="edge"><title>ActionSecurityAssignment&#45;&gt;Action</title>
<path fill="none" stroke="black" d="M168.524,-195.039C189.385,-214.554 211.932,-235.646 231.582,-254.028"/>
<polygon fill="black" stroke="black" points="229.267,-256.656 238.961,-260.931 234.049,-251.544 229.267,-256.656"/>
</g>
<!-- Security -->
<g id="node8" class="node"><title>Security</title>
<polygon fill="none" stroke="black" points="239,-0 239,-208 331,-208 331,-0 239,-0"/>
<text text-anchor="middle" x="285" y="-191.4" font-family="Times Roman,serif" font-size="14.00">Security</text>
<polyline fill="none" stroke="black" points="239,-182 331,-182 "/>
<text text-anchor="middle" x="285" y="-165.4" font-family="Times Roman,serif" font-size="14.00">id</text>
<polyline fill="none" stroke="black" points="239,-156 331,-156 "/>
<text text-anchor="middle" x="285" y="-139.4" font-family="Times Roman,serif" font-size="14.00">uuid</text>
<polyline fill="none" stroke="black" points="239,-130 331,-130 "/>
<text text-anchor="middle" x="285" y="-113.4" font-family="Times Roman,serif" font-size="14.00">name</text>
<polyline fill="none" stroke="black" points="239,-104 331,-104 "/>
<text text-anchor="middle" x="285" y="-87.4" font-family="Times Roman,serif" font-size="14.00">value</text>
<polyline fill="none" stroke="black" points="239,-78 331,-78 "/>
<text text-anchor="middle" x="285" y="-61.4" font-family="Times Roman,serif" font-size="14.00">unit</text>
<polyline fill="none" stroke="black" points="239,-52 331,-52 "/>
<text text-anchor="middle" x="285" y="-35.4" font-family="Times Roman,serif" font-size="14.00">description</text>
<polyline fill="none" stroke="black" points="239,-26 331,-26 "/>
<text text-anchor="middle" x="285" y="-9.4" font-family="Times Roman,serif" font-size="14.00">enabled</text>
</g>
<!-- ActionSecurityAssignment&#45;&gt;Security -->
<g id="edge6" class="edge"><title>ActionSecurityAssignment&#45;&gt;Security</title>
<path fill="none" stroke="black" d="M197.718,-116.201C208.302,-114.721 218.786,-113.256 228.62,-111.881"/>
<polygon fill="black" stroke="black" points="229.19,-115.335 238.61,-110.485 228.221,-108.403 229.19,-115.335"/>
</g>
<!-- Object -->
<g id="node11" class="node"><title>Object</title>
<polygon fill="none" stroke="black" points="239,-1478 239,-1634 331,-1634 331,-1478 239,-1478"/>
<text text-anchor="middle" x="285" y="-1617.4" font-family="Times Roman,serif" font-size="14.00">Object</text>
<polyline fill="none" stroke="black" points="239,-1608 331,-1608 "/>
<text text-anchor="middle" x="285" y="-1591.4" font-family="Times Roman,serif" font-size="14.00">id</text>
<polyline fill="none" stroke="black" points="239,-1582 331,-1582 "/>
<text text-anchor="middle" x="285" y="-1565.4" font-family="Times Roman,serif" font-size="14.00">uuid</text>
<polyline fill="none" stroke="black" points="239,-1556 331,-1556 "/>
<text text-anchor="middle" x="285" y="-1539.4" font-family="Times Roman,serif" font-size="14.00">name</text>
<polyline fill="none" stroke="black" points="239,-1530 331,-1530 "/>
<text text-anchor="middle" x="285" y="-1513.4" font-family="Times Roman,serif" font-size="14.00">description</text>
<polyline fill="none" stroke="black" points="239,-1504 331,-1504 "/>
<text text-anchor="middle" x="285" y="-1487.4" font-family="Times Roman,serif" font-size="14.00">enabled</text>
</g>
<!-- SubjectGroupAssignment -->
<g id="node12" class="node"><title>SubjectGroupAssignment</title>
<polygon fill="none" stroke="black" points="4,-958 4,-1088 194,-1088 194,-958 4,-958"/>
<text text-anchor="middle" x="99" y="-1071.4" font-family="Times Roman,serif" font-size="14.00">SubjectGroupAssignment</text>
<polyline fill="none" stroke="black" points="4,-1062 194,-1062 "/>
<text text-anchor="middle" x="99" y="-1045.4" font-family="Times Roman,serif" font-size="14.00">id</text>
<polyline fill="none" stroke="black" points="4,-1036 194,-1036 "/>
<text text-anchor="middle" x="99" y="-1019.4" font-family="Times Roman,serif" font-size="14.00">uuid</text>
<polyline fill="none" stroke="black" points="4,-1010 194,-1010 "/>
<text text-anchor="middle" x="99" y="-993.4" font-family="Times Roman,serif" font-size="14.00">subject_uuid</text>
<polyline fill="none" stroke="black" points="4,-984 194,-984 "/>
<text text-anchor="middle" x="99" y="-967.4" font-family="Times Roman,serif" font-size="14.00">group_uuid</text>
</g>
<!-- SubjectGroupAssignment&#45;&gt;Group -->
<g id="edge12" class="edge"><title>SubjectGroupAssignment&#45;&gt;Group</title>
<path fill="none" stroke="black" d="M194.18,-1084.41C204.825,-1091.27 215.433,-1098.12 225.445,-1104.58"/>
<polygon fill="black" stroke="black" points="223.774,-1107.66 234.075,-1110.15 227.569,-1101.78 223.774,-1107.66"/>
</g>
<!-- Subject -->
<g id="node13" class="node"><title>Subject</title>
<polygon fill="none" stroke="black" points="239,-774 239,-1034 331,-1034 331,-774 239,-774"/>
<text text-anchor="middle" x="285" y="-1017.4" font-family="Times Roman,serif" font-size="14.00">Subject</text>
<polyline fill="none" stroke="black" points="239,-1008 331,-1008 "/>
<text text-anchor="middle" x="285" y="-991.4" font-family="Times Roman,serif" font-size="14.00">id</text>
<polyline fill="none" stroke="black" points="239,-982 331,-982 "/>
<text text-anchor="middle" x="285" y="-965.4" font-family="Times Roman,serif" font-size="14.00">uuid</text>
<polyline fill="none" stroke="black" points="239,-956 331,-956 "/>
<text text-anchor="middle" x="285" y="-939.4" font-family="Times Roman,serif" font-size="14.00">name</text>
<polyline fill="none" stroke="black" points="239,-930 331,-930 "/>
<text text-anchor="middle" x="285" y="-913.4" font-family="Times Roman,serif" font-size="14.00">password</text>
<polyline fill="none" stroke="black" points="239,-904 331,-904 "/>
<text text-anchor="middle" x="285" y="-887.4" font-family="Times Roman,serif" font-size="14.00">mail</text>
<polyline fill="none" stroke="black" points="239,-878 331,-878 "/>
<text text-anchor="middle" x="285" y="-861.4" font-family="Times Roman,serif" font-size="14.00">description</text>
<polyline fill="none" stroke="black" points="239,-852 331,-852 "/>
<text text-anchor="middle" x="285" y="-835.4" font-family="Times Roman,serif" font-size="14.00">domain</text>
<polyline fill="none" stroke="black" points="239,-826 331,-826 "/>
<text text-anchor="middle" x="285" y="-809.4" font-family="Times Roman,serif" font-size="14.00">project</text>
<polyline fill="none" stroke="black" points="239,-800 331,-800 "/>
<text text-anchor="middle" x="285" y="-783.4" font-family="Times Roman,serif" font-size="14.00">enabled</text>
</g>
<!-- SubjectGroupAssignment&#45;&gt;Subject -->
<g id="edge10" class="edge"><title>SubjectGroupAssignment&#45;&gt;Subject</title>
<path fill="none" stroke="black" d="M194.18,-962.106C206.573,-954.177 218.914,-946.281 230.323,-938.982"/>
<polygon fill="black" stroke="black" points="232.313,-941.863 238.851,-933.526 228.541,-935.967 232.313,-941.863"/>
</g>
<!-- Role -->
<g id="node16" class="node"><title>Role</title>
<polygon fill="none" stroke="black" points="234.5,-574 234.5,-756 335.5,-756 335.5,-574 234.5,-574"/>
<text text-anchor="middle" x="285" y="-739.4" font-family="Times Roman,serif" font-size="14.00">Role</text>
<polyline fill="none" stroke="black" points="234.5,-730 335.5,-730 "/>
<text text-anchor="middle" x="285" y="-713.4" font-family="Times Roman,serif" font-size="14.00">id</text>
<polyline fill="none" stroke="black" points="234.5,-704 335.5,-704 "/>
<text text-anchor="middle" x="285" y="-687.4" font-family="Times Roman,serif" font-size="14.00">uuid</text>
<polyline fill="none" stroke="black" points="234.5,-678 335.5,-678 "/>
<text text-anchor="middle" x="285" y="-661.4" font-family="Times Roman,serif" font-size="14.00">name</text>
<polyline fill="none" stroke="black" points="234.5,-652 335.5,-652 "/>
<text text-anchor="middle" x="285" y="-635.4" font-family="Times Roman,serif" font-size="14.00">tenant_uuid</text>
<polyline fill="none" stroke="black" points="234.5,-626 335.5,-626 "/>
<text text-anchor="middle" x="285" y="-609.4" font-family="Times Roman,serif" font-size="14.00">description</text>
<polyline fill="none" stroke="black" points="234.5,-600 335.5,-600 "/>
<text text-anchor="middle" x="285" y="-583.4" font-family="Times Roman,serif" font-size="14.00">enabled</text>
</g>
<!-- ObjectTypeAssignment -->
<g id="node17" class="node"><title>ObjectTypeAssignment</title>
<polygon fill="none" stroke="black" points="12.5,-1578 12.5,-1708 185.5,-1708 185.5,-1578 12.5,-1578"/>
<text text-anchor="middle" x="99" y="-1691.4" font-family="Times Roman,serif" font-size="14.00">ObjectTypeAssignment</text>
<polyline fill="none" stroke="black" points="12.5,-1682 185.5,-1682 "/>
<text text-anchor="middle" x="99" y="-1665.4" font-family="Times Roman,serif" font-size="14.00">id</text>
<polyline fill="none" stroke="black" points="12.5,-1656 185.5,-1656 "/>
<text text-anchor="middle" x="99" y="-1639.4" font-family="Times Roman,serif" font-size="14.00">uuid</text>
<polyline fill="none" stroke="black" points="12.5,-1630 185.5,-1630 "/>
<text text-anchor="middle" x="99" y="-1613.4" font-family="Times Roman,serif" font-size="14.00">object_uuid</text>
<polyline fill="none" stroke="black" points="12.5,-1604 185.5,-1604 "/>
<text text-anchor="middle" x="99" y="-1587.4" font-family="Times Roman,serif" font-size="14.00">type_uuid</text>
</g>
<!-- ObjectTypeAssignment&#45;&gt;Object -->
<g id="edge14" class="edge"><title>ObjectTypeAssignment&#45;&gt;Object</title>
<path fill="none" stroke="black" d="M185.738,-1602.43C200.666,-1595.45 215.811,-1588.36 229.623,-1581.9"/>
<polygon fill="black" stroke="black" points="231.379,-1584.94 238.954,-1577.54 228.413,-1578.6 231.379,-1584.94"/>
</g>
<!-- Type -->
<g id="node19" class="node"><title>Type</title>
<polygon fill="none" stroke="black" points="239,-1652 239,-1808 331,-1808 331,-1652 239,-1652"/>
<text text-anchor="middle" x="285" y="-1791.4" font-family="Times Roman,serif" font-size="14.00">Type</text>
<polyline fill="none" stroke="black" points="239,-1782 331,-1782 "/>
<text text-anchor="middle" x="285" y="-1765.4" font-family="Times Roman,serif" font-size="14.00">id</text>
<polyline fill="none" stroke="black" points="239,-1756 331,-1756 "/>
<text text-anchor="middle" x="285" y="-1739.4" font-family="Times Roman,serif" font-size="14.00">uuid</text>
<polyline fill="none" stroke="black" points="239,-1730 331,-1730 "/>
<text text-anchor="middle" x="285" y="-1713.4" font-family="Times Roman,serif" font-size="14.00">name</text>
<polyline fill="none" stroke="black" points="239,-1704 331,-1704 "/>
<text text-anchor="middle" x="285" y="-1687.4" font-family="Times Roman,serif" font-size="14.00">description</text>
<polyline fill="none" stroke="black" points="239,-1678 331,-1678 "/>
<text text-anchor="middle" x="285" y="-1661.4" font-family="Times Roman,serif" font-size="14.00">enabled</text>
</g>
<!-- ObjectTypeAssignment&#45;&gt;Type -->
<g id="edge16" class="edge"><title>ObjectTypeAssignment&#45;&gt;Type</title>
<path fill="none" stroke="black" d="M185.738,-1683.57C200.666,-1690.55 215.811,-1697.64 229.623,-1704.1"/>
<polygon fill="black" stroke="black" points="228.413,-1707.4 238.954,-1708.46 231.379,-1701.06 228.413,-1707.4"/>
</g>
<!-- Size -->
<g id="node21" class="node"><title>Size</title>
<polygon fill="none" stroke="black" points="239,-1252 239,-1460 331,-1460 331,-1252 239,-1252"/>
<text text-anchor="middle" x="285" y="-1443.4" font-family="Times Roman,serif" font-size="14.00">Size</text>
<polyline fill="none" stroke="black" points="239,-1434 331,-1434 "/>
<text text-anchor="middle" x="285" y="-1417.4" font-family="Times Roman,serif" font-size="14.00">id</text>
<polyline fill="none" stroke="black" points="239,-1408 331,-1408 "/>
<text text-anchor="middle" x="285" y="-1391.4" font-family="Times Roman,serif" font-size="14.00">uuid</text>
<polyline fill="none" stroke="black" points="239,-1382 331,-1382 "/>
<text text-anchor="middle" x="285" y="-1365.4" font-family="Times Roman,serif" font-size="14.00">name</text>
<polyline fill="none" stroke="black" points="239,-1356 331,-1356 "/>
<text text-anchor="middle" x="285" y="-1339.4" font-family="Times Roman,serif" font-size="14.00">value</text>
<polyline fill="none" stroke="black" points="239,-1330 331,-1330 "/>
<text text-anchor="middle" x="285" y="-1313.4" font-family="Times Roman,serif" font-size="14.00">unit</text>
<polyline fill="none" stroke="black" points="239,-1304 331,-1304 "/>
<text text-anchor="middle" x="285" y="-1287.4" font-family="Times Roman,serif" font-size="14.00">description</text>
<polyline fill="none" stroke="black" points="239,-1278 331,-1278 "/>
<text text-anchor="middle" x="285" y="-1261.4" font-family="Times Roman,serif" font-size="14.00">enabled</text>
</g>
<!-- ObjectSizeAssignment -->
<g id="node22" class="node"><title>ObjectSizeAssignment</title>
<polygon fill="none" stroke="black" points="14,-1404 14,-1534 184,-1534 184,-1404 14,-1404"/>
<text text-anchor="middle" x="99" y="-1517.4" font-family="Times Roman,serif" font-size="14.00">ObjectSizeAssignment</text>
<polyline fill="none" stroke="black" points="14,-1508 184,-1508 "/>
<text text-anchor="middle" x="99" y="-1491.4" font-family="Times Roman,serif" font-size="14.00">id</text>
<polyline fill="none" stroke="black" points="14,-1482 184,-1482 "/>
<text text-anchor="middle" x="99" y="-1465.4" font-family="Times Roman,serif" font-size="14.00">uuid</text>
<polyline fill="none" stroke="black" points="14,-1456 184,-1456 "/>
<text text-anchor="middle" x="99" y="-1439.4" font-family="Times Roman,serif" font-size="14.00">object_uuid</text>
<polyline fill="none" stroke="black" points="14,-1430 184,-1430 "/>
<text text-anchor="middle" x="99" y="-1413.4" font-family="Times Roman,serif" font-size="14.00">size_uuid</text>
</g>
<!-- ObjectSizeAssignment&#45;&gt;Object -->
<g id="edge18" class="edge"><title>ObjectSizeAssignment&#45;&gt;Object</title>
<path fill="none" stroke="black" d="M184.107,-1508.81C199.565,-1516.04 215.317,-1523.41 229.636,-1530.1"/>
<polygon fill="black" stroke="black" points="228.28,-1533.33 238.821,-1534.4 231.246,-1526.99 228.28,-1533.33"/>
</g>
<!-- ObjectSizeAssignment&#45;&gt;Size -->
<g id="edge20" class="edge"><title>ObjectSizeAssignment&#45;&gt;Size</title>
<path fill="none" stroke="black" d="M184.107,-1417.3C199.713,-1407.81 215.617,-1398.15 230.045,-1389.39"/>
<polygon fill="black" stroke="black" points="232.092,-1392.24 238.821,-1384.05 228.458,-1386.26 232.092,-1392.24"/>
</g>
<!-- SubjectRoleAssignment -->
<g id="node25" class="node"><title>SubjectRoleAssignment</title>
<polygon fill="none" stroke="black" points="10.5,-626 10.5,-782 187.5,-782 187.5,-626 10.5,-626"/>
<text text-anchor="middle" x="99" y="-765.4" font-family="Times Roman,serif" font-size="14.00">SubjectRoleAssignment</text>
<polyline fill="none" stroke="black" points="10.5,-756 187.5,-756 "/>
<text text-anchor="middle" x="99" y="-739.4" font-family="Times Roman,serif" font-size="14.00">id</text>
<polyline fill="none" stroke="black" points="10.5,-730 187.5,-730 "/>
<text text-anchor="middle" x="99" y="-713.4" font-family="Times Roman,serif" font-size="14.00">uuid</text>
<polyline fill="none" stroke="black" points="10.5,-704 187.5,-704 "/>
<text text-anchor="middle" x="99" y="-687.4" font-family="Times Roman,serif" font-size="14.00">subject_uuid</text>
<polyline fill="none" stroke="black" points="10.5,-678 187.5,-678 "/>
<text text-anchor="middle" x="99" y="-661.4" font-family="Times Roman,serif" font-size="14.00">role_uuid</text>
<polyline fill="none" stroke="black" points="10.5,-652 187.5,-652 "/>
<text text-anchor="middle" x="99" y="-635.4" font-family="Times Roman,serif" font-size="14.00">tenant_uuid</text>
</g>
<!-- SubjectRoleAssignment&#45;&gt;Subject -->
<g id="edge22" class="edge"><title>SubjectRoleAssignment&#45;&gt;Subject</title>
<path fill="none" stroke="black" d="M171.712,-782.185C191.769,-803.751 213.149,-826.741 231.871,-846.872"/>
<polygon fill="black" stroke="black" points="229.535,-849.499 238.908,-854.438 234.66,-844.732 229.535,-849.499"/>
</g>
<!-- SubjectRoleAssignment&#45;&gt;Role -->
<g id="edge24" class="edge"><title>SubjectRoleAssignment&#45;&gt;Role</title>
<path fill="none" stroke="black" d="M187.642,-685.414C200.017,-682.819 212.495,-680.203 224.197,-677.749"/>
<polygon fill="black" stroke="black" points="225.19,-681.117 234.259,-675.639 223.754,-674.266 225.19,-681.117"/>
</g>
</g>
</svg>
