<?xml version="1.0" encoding="UTF-8" standalone="no"?>
<!DOCTYPE svg PUBLIC "-//W3C//DTD SVG 1.1//EN"
 "http://www.w3.org/Graphics/SVG/1.1/DTD/svg11.dtd">
<!-- Generated by graphviz version 2.26.3 (20100126.1600)
 -->
<!-- Title: _anonymous_0 Pages: 1 -->
<svg width="316pt" height="476pt"
 viewBox="0.00 0.00 316.00 476.00" xmlns="http://www.w3.org/2000/svg" xmlns:xlink="http://www.w3.org/1999/xlink">
<g id="graph1" class="graph" transform="scale(1 1) rotate(0) translate(4 472)">
<title>_anonymous_0</title>
<polygon fill="white" stroke="white" points="-4,5 -4,-472 313,-472 313,5 -4,5"/>
<!-- ActionActivityAssignment -->
<g id="node1" class="node"><title>ActionActivityAssignment</title>
<polygon fill="none" stroke="lightgray" points="195,-130 3,-130 3,-94 195,-94 195,-130"/>
<text text-anchor="middle" x="99" y="-108.4" font-family="Times Roman,serif" font-size="14.00">ActionActivityAssignment</text>
</g>
<!-- Activity -->
<g id="node2" class="node"><title>Activity</title>
<polygon fill="none" stroke="lightgray" points="305,-144 237,-144 237,-108 305,-108 305,-144"/>
<text text-anchor="middle" x="271" y="-122.4" font-family="Times Roman,serif" font-size="14.00">Activity</text>
</g>
<!-- ActionActivityAssignment&#45;&gt;Activity -->
<g id="edge2" class="edge"><title>ActionActivityAssignment&#45;&gt;Activity</title>
<path fill="none" stroke="black" d="M195.058,-119.819C205.908,-120.702 216.541,-121.567 226.255,-122.358"/>
<polygon fill="black" stroke="black" points="226.149,-125.861 236.4,-123.184 226.717,-118.884 226.149,-125.861"/>
</g>
<!-- Action -->
<g id="node4" class="node"><title>Action</title>
<polygon fill="none" stroke="lightgray" points="301,-90 241,-90 241,-54 301,-54 301,-90"/>
<text text-anchor="middle" x="271" y="-68.4" font-family="Times Roman,serif" font-size="14.00">Action</text>
</g>
<!-- ActionActivityAssignment&#45;&gt;Action -->
<g id="edge4" class="edge"><title>ActionActivityAssignment&#45;&gt;Action</title>
<path fill="none" stroke="black" d="M176.446,-93.9893C195.171,-89.6346 214.442,-85.1529 230.662,-81.381"/>
<polygon fill="black" stroke="black" points="231.896,-84.6875 240.843,-79.0132 230.31,-77.8694 231.896,-84.6875"/>
</g>
<!-- Group -->
<g id="node6" class="node"><title>Group</title>
<polygon fill="none" stroke="lightgray" points="300,-306 242,-306 242,-270 300,-270 300,-306"/>
<text text-anchor="middle" x="271" y="-284.4" font-family="Times Roman,serif" font-size="14.00">Group</text>
</g>
<!-- ActionSecurityAssignment -->
<g id="node7" class="node"><title>ActionSecurityAssignment</title>
<polygon fill="none" stroke="lightgray" points="197,-49 1,-49 1,-13 197,-13 197,-49"/>
<text text-anchor="middle" x="99" y="-27.4" font-family="Times Roman,serif" font-size="14.00">ActionSecurityAssignment</text>
</g>
<!-- ActionSecurityAssignment&#45;&gt;Action -->
<g id="edge6" class="edge"><title>ActionSecurityAssignment&#45;&gt;Action</title>
<path fill="none" stroke="black" d="M174.692,-49.0429C193.948,-53.6331 213.904,-58.39 230.623,-62.3752"/>
<polygon fill="black" stroke="black" points="230.04,-65.8342 240.579,-64.7484 231.663,-59.025 230.04,-65.8342"/>
</g>
<!-- Security -->
<g id="node9" class="node"><title>Security</title>
<polygon fill="none" stroke="lightgray" points="308,-36 234,-36 234,-1.06581e-14 308,-0 308,-36"/>
<text text-anchor="middle" x="271" y="-14.4" font-family="Times Roman,serif" font-size="14.00">Security</text>
</g>
<!-- ActionSecurityAssignment&#45;&gt;Security -->
<g id="edge8" class="edge"><title>ActionSecurityAssignment&#45;&gt;Security</title>
<path fill="none" stroke="black" d="M197.558,-23.5509C206.635,-22.8648 215.522,-22.1931 223.802,-21.5673"/>
<polygon fill="black" stroke="black" points="224.226,-25.0454 233.933,-20.8016 223.698,-18.0653 224.226,-25.0454"/>
</g>
<!-- Object -->
<g id="node11" class="node"><title>Object</title>
<polygon fill="none" stroke="lightgray" points="301,-414 241,-414 241,-378 301,-378 301,-414"/>
<text text-anchor="middle" x="271" y="-392.4" font-family="Times Roman,serif" font-size="14.00">Object</text>
</g>
<!-- SubjectGroupAssignment -->
<g id="node12" class="node"><title>SubjectGroupAssignment</title>
<polygon fill="none" stroke="lightgray" points="194,-279 4,-279 4,-243 194,-243 194,-279"/>
<text text-anchor="middle" x="99" y="-257.4" font-family="Times Roman,serif" font-size="14.00">SubjectGroupAssignment</text>
</g>
<!-- SubjectGroupAssignment&#45;&gt;Group -->
<g id="edge10" class="edge"><title>SubjectGroupAssignment&#45;&gt;Group</title>
<path fill="none" stroke="black" d="M194.055,-275.921C207.142,-277.976 219.945,-279.986 231.236,-281.758"/>
<polygon fill="black" stroke="black" points="230.722,-285.22 241.144,-283.313 231.808,-278.305 230.722,-285.22"/>
</g>
<!-- Subject -->
<g id="node14" class="node"><title>Subject</title>
<polygon fill="none" stroke="lightgray" points="305,-252 237,-252 237,-216 305,-216 305,-252"/>
<text text-anchor="middle" x="271" y="-230.4" font-family="Times Roman,serif" font-size="14.00">Subject</text>
</g>
<!-- SubjectGroupAssignment&#45;&gt;Subject -->
<g id="edge12" class="edge"><title>SubjectGroupAssignment&#45;&gt;Subject</title>
<path fill="none" stroke="black" d="M194.055,-246.079C205.357,-244.304 216.448,-242.563 226.536,-240.98"/>
<polygon fill="black" stroke="black" points="227.316,-244.4 236.652,-239.392 226.23,-237.485 227.316,-244.4"/>
</g>
<!-- Role -->
<g id="node16" class="node"><title>Role</title>
<polygon fill="none" stroke="lightgray" points="298,-198 244,-198 244,-162 298,-162 298,-198"/>
<text text-anchor="middle" x="271" y="-176.4" font-family="Times Roman,serif" font-size="14.00">Role</text>
</g>
<!-- ObjectTypeAssignment -->
<g id="node17" class="node"><title>ObjectTypeAssignment</title>
<polygon fill="none" stroke="lightgray" points="185,-441 13,-441 13,-405 185,-405 185,-441"/>
<text text-anchor="middle" x="99" y="-419.4" font-family="Times Roman,serif" font-size="14.00">ObjectTypeAssignment</text>
</g>
<!-- ObjectTypeAssignment&#45;&gt;Object -->
<g id="edge16" class="edge"><title>ObjectTypeAssignment&#45;&gt;Object</title>
<path fill="none" stroke="black" d="M185.504,-409.421C201.236,-406.951 216.946,-404.485 230.528,-402.353"/>
<polygon fill="black" stroke="black" points="231.127,-405.802 240.464,-400.794 230.042,-398.887 231.127,-405.802"/>
</g>
<!-- Type -->
<g id="node18" class="node"><title>Type</title>
<polygon fill="none" stroke="lightgray" points="298,-468 244,-468 244,-432 298,-432 298,-468"/>
<text text-anchor="middle" x="271" y="-446.4" font-family="Times Roman,serif" font-size="14.00">Type</text>
</g>
<!-- ObjectTypeAssignment&#45;&gt;Type -->
<g id="edge14" class="edge"><title>ObjectTypeAssignment&#45;&gt;Type</title>
<path fill="none" stroke="black" d="M185.504,-436.579C202.602,-439.263 219.674,-441.943 234.016,-444.194"/>
<polygon fill="black" stroke="black" points="233.515,-447.659 243.937,-445.752 234.601,-440.743 233.515,-447.659"/>
</g>
<!-- Size -->
<g id="node21" class="node"><title>Size</title>
<polygon fill="none" stroke="lightgray" points="298,-360 244,-360 244,-324 298,-324 298,-360"/>
<text text-anchor="middle" x="271" y="-338.4" font-family="Times Roman,serif" font-size="14.00">Size</text>
</g>
<!-- ObjectSizeAssignment -->
<g id="node22" class="node"><title>ObjectSizeAssignment</title>
<polygon fill="none" stroke="lightgray" points="184,-387 14,-387 14,-351 184,-351 184,-387"/>
<text text-anchor="middle" x="99" y="-365.4" font-family="Times Roman,serif" font-size="14.00">ObjectSizeAssignment</text>
</g>
<!-- ObjectSizeAssignment&#45;&gt;Object -->
<g id="edge20" class="edge"><title>ObjectSizeAssignment&#45;&gt;Object</title>
<path fill="none" stroke="black" d="M184.244,-382.381C200.265,-384.896 216.321,-387.417 230.188,-389.593"/>
<polygon fill="black" stroke="black" points="229.906,-393.092 240.328,-391.185 230.992,-386.177 229.906,-393.092"/>
</g>
<!-- ObjectSizeAssignment&#45;&gt;Size -->
<g id="edge18" class="edge"><title>ObjectSizeAssignment&#45;&gt;Size</title>
<path fill="none" stroke="black" d="M184.244,-355.619C201.646,-352.887 219.089,-350.149 233.722,-347.852"/>
<polygon fill="black" stroke="black" points="234.505,-351.272 243.841,-346.263 233.419,-344.357 234.505,-351.272"/>
</g>
<!-- SubjectRoleAssignment -->
<g id="node25" class="node"><title>SubjectRoleAssignment</title>
<polygon fill="none" stroke="lightgray" points="187,-198 11,-198 11,-162 187,-162 187,-198"/>
<text text-anchor="middle" x="99" y="-176.4" font-family="Times Roman,serif" font-size="14.00">SubjectRoleAssignment</text>
</g>
<!-- SubjectRoleAssignment&#45;&gt;Subject -->
<g id="edge24" class="edge"><title>SubjectRoleAssignment&#45;&gt;Subject</title>
<path fill="none" stroke="black" d="M156.752,-198.131C179.752,-205.352 205.785,-213.526 227.186,-220.244"/>
<polygon fill="black" stroke="black" points="226.385,-223.661 236.974,-223.317 228.482,-216.983 226.385,-223.661"/>
</g>
<!-- SubjectRoleAssignment&#45;&gt;Role -->
<g id="edge22" class="edge"><title>SubjectRoleAssignment&#45;&gt;Role</title>
<path fill="none" stroke="black" d="M187.519,-180C203.757,-180 219.874,-180 233.554,-180"/>
<polygon fill="black" stroke="black" points="233.958,-183.5 243.958,-180 233.958,-176.5 233.958,-183.5"/>
</g>
</g>
</svg>
