<?xml version="1.0" encoding="UTF-8" standalone="no"?>
<!DOCTYPE svg PUBLIC "-//W3C//DTD SVG 1.1//EN"
 "http://www.w3.org/Graphics/SVG/1.1/DTD/svg11.dtd">
<!-- Generated by graphviz version 2.26.3 (20100126.1600)
 -->
<!-- Title: _anonymous_0 Pages: 1 -->
<svg width="801pt" height="194pt"
 viewBox="0.00 0.00 801.00 194.00" xmlns="http://www.w3.org/2000/svg" xmlns:xlink="http://www.w3.org/1999/xlink">
<g id="graph1" class="graph" transform="scale(1 1) rotate(0) translate(4 190)">
<title>_anonymous_0</title>
<polygon fill="white" stroke="white" points="-4,5 -4,-190 798,-190 798,5 -4,5"/>
<!-- admin -->
<g id="node1" class="node"><title>admin</title>
<ellipse fill="none" stroke="black" cx="176" cy="-167" rx="41.2167" ry="18.3848"/>
<text text-anchor="middle" x="176" y="-163.4" font-family="Times Roman,serif" font-size="14.00">admin</text>
</g>
<!-- alt_demo -->
<g id="node3" class="node"><title>alt_demo</title>
<ellipse fill="none" stroke="black" cx="56" cy="-93" rx="56.0679" ry="18.3848"/>
<text text-anchor="middle" x="56" y="-89.4" font-family="Times Roman,serif" font-size="14.00">alt_demo</text>
</g>
<!-- admin&#45;&gt;alt_demo -->
<g id="edge2" class="edge"><title>admin&#45;&gt;alt_demo</title>
<path fill="none" stroke="black" d="M151.716,-152.025C134.375,-141.331 110.774,-126.777 91.3476,-114.798"/>
<polygon fill="black" stroke="black" points="93.1019,-111.768 82.753,-109.498 89.4276,-117.726 93.1019,-111.768"/>
</g>
<!-- service -->
<g id="node5" class="node"><title>service</title>
<ellipse fill="none" stroke="black" cx="176" cy="-93" rx="45.9619" ry="18.3848"/>
<text text-anchor="middle" x="176" y="-89.4" font-family="Times Roman,serif" font-size="14.00">service</text>
</g>
<!-- admin&#45;&gt;service -->
<g id="edge4" class="edge"><title>admin&#45;&gt;service</title>
<path fill="none" stroke="black" d="M176,-148.327C176,-140.264 176,-130.648 176,-121.711"/>
<polygon fill="black" stroke="black" points="179.5,-121.667 176,-111.667 172.5,-121.667 179.5,-121.667"/>
</g>
<!-- demo2 -->
<g id="node7" class="node"><title>demo2</title>
<ellipse fill="none" stroke="black" cx="284" cy="-93" rx="44.0472" ry="18.3848"/>
<text text-anchor="middle" x="284" y="-89.4" font-family="Times Roman,serif" font-size="14.00">demo2</text>
</g>
<!-- admin&#45;&gt;demo2 -->
<g id="edge6" class="edge"><title>admin&#45;&gt;demo2</title>
<path fill="none" stroke="black" d="M198.64,-151.487C214.126,-140.877 234.877,-126.658 252.041,-114.898"/>
<polygon fill="black" stroke="black" points="254.373,-117.543 260.644,-109.003 250.416,-111.769 254.373,-117.543"/>
</g>
<!-- demo4 -->
<g id="node10" class="node"><title>demo4</title>
<ellipse fill="none" stroke="black" cx="231" cy="-19" rx="44.0472" ry="18.3848"/>
<text text-anchor="middle" x="231" y="-15.4" font-family="Times Roman,serif" font-size="14.00">demo4</text>
</g>
<!-- demo2&#45;&gt;demo4 -->
<g id="edge8" class="edge"><title>demo2&#45;&gt;demo4</title>
<path fill="none" stroke="black" d="M271.17,-75.0867C264.725,-66.088 256.795,-55.0151 249.687,-45.0919"/>
<polygon fill="black" stroke="black" points="252.38,-42.8403 243.712,-36.7484 246.689,-46.9163 252.38,-42.8403"/>
</g>
<!-- demo3 -->
<g id="node12" class="node"><title>demo3</title>
<ellipse fill="none" stroke="black" cx="337" cy="-19" rx="44.0472" ry="18.3848"/>
<text text-anchor="middle" x="337" y="-15.4" font-family="Times Roman,serif" font-size="14.00">demo3</text>
</g>
<!-- demo2&#45;&gt;demo3 -->
<g id="edge10" class="edge"><title>demo2&#45;&gt;demo3</title>
<path fill="none" stroke="black" d="M296.83,-75.0867C303.275,-66.088 311.205,-55.0151 318.313,-45.0919"/>
<polygon fill="black" stroke="black" points="321.311,-46.9163 324.288,-36.7484 315.62,-42.8403 321.311,-46.9163"/>
</g>
<!-- demo -->
<g id="node8" class="node"><title>demo</title>
<ellipse fill="none" stroke="black" cx="273" cy="-167" rx="38.1838" ry="18.3848"/>
<text text-anchor="middle" x="273" y="-163.4" font-family="Times Roman,serif" font-size="14.00">demo</text>
</g>
<!-- demo5 -->
<g id="node13" class="node"><title>demo5</title>
<ellipse fill="none" stroke="black" cx="373" cy="-167" rx="44.0472" ry="18.3848"/>
<text text-anchor="middle" x="373" y="-163.4" font-family="Times Roman,serif" font-size="14.00">demo5</text>
</g>
<!-- invisible_to_admin -->
<g id="node14" class="node"><title>invisible_to_admin</title>
<ellipse fill="none" stroke="black" cx="536" cy="-167" rx="101.116" ry="18.3848"/>
<text text-anchor="middle" x="536" y="-163.4" font-family="Times Roman,serif" font-size="14.00">invisible_to_admin</text>
</g>
<!-- test_tenant -->
<g id="node15" class="node"><title>test_tenant</title>
<ellipse fill="none" stroke="black" cx="724" cy="-167" rx="68.7979" ry="18.3848"/>
<text text-anchor="middle" x="724" y="-163.4" font-family="Times Roman,serif" font-size="14.00">test_tenant</text>
</g>
</g>
</svg>
