<?xml version="1.0" encoding="UTF-8" standalone="no"?>
<!DOCTYPE svg PUBLIC "-//W3C//DTD SVG 1.1//EN"
 "http://www.w3.org/Graphics/SVG/1.1/DTD/svg11.dtd">
<!-- Generated by graphviz version 2.26.3 (20100126.1600)
 -->
<!-- Title: _anonymous_0 Pages: 1 -->
<svg width="803pt" height="194pt"
 viewBox="0.00 0.00 803.00 194.00" xmlns="http://www.w3.org/2000/svg" xmlns:xlink="http://www.w3.org/1999/xlink">
<g id="graph1" class="graph" transform="scale(1 1) rotate(0) translate(4 190)">
<title>_anonymous_0</title>
<polygon fill="white" stroke="white" points="-4,5 -4,-190 800,-190 800,5 -4,5"/>
<!-- admin -->
<g id="node1" class="node"><title>admin</title>
<ellipse fill="none" stroke="black" cx="174" cy="-167" rx="41.2167" ry="18.3848"/>
<text text-anchor="middle" x="174" y="-163.4" font-family="Times Roman,serif" font-size="14.00">admin</text>
</g>
<!-- alt_demo -->
<g id="node3" class="node"><title>alt_demo</title>
<ellipse fill="none" stroke="black" cx="56" cy="-93" rx="56.0679" ry="18.3848"/>
<text text-anchor="middle" x="56" y="-89.4" font-family="Times Roman,serif" font-size="14.00">alt_demo</text>
</g>
<!-- admin&#45;&gt;alt_demo -->
<g id="edge2" class="edge"><title>admin&#45;&gt;alt_demo</title>
<path fill="none" stroke="black" d="M149.836,-151.846C132.839,-141.187 109.833,-126.76 90.855,-114.858"/>
<polygon fill="black" stroke="black" points="92.5126,-111.766 82.1812,-109.419 88.7936,-117.697 92.5126,-111.766"/>
</g>
<!-- demo2 -->
<g id="node5" class="node"><title>demo2</title>
<ellipse fill="none" stroke="black" cx="174" cy="-93" rx="44.0472" ry="18.3848"/>
<text text-anchor="middle" x="174" y="-89.4" font-family="Times Roman,serif" font-size="14.00">demo2</text>
</g>
<!-- admin&#45;&gt;demo2 -->
<g id="edge4" class="edge"><title>admin&#45;&gt;demo2</title>
<path fill="none" stroke="black" d="M174,-148.327C174,-140.264 174,-130.648 174,-121.711"/>
<polygon fill="black" stroke="black" points="177.5,-121.667 174,-111.667 170.5,-121.667 177.5,-121.667"/>
</g>
<!-- demo3 -->
<g id="node6" class="node"><title>demo3</title>
<ellipse fill="none" stroke="red" cx="280" cy="-93" rx="44.0472" ry="18.3848"/>
<text text-anchor="middle" x="280" y="-89.4" font-family="Times Roman,serif" font-size="14.00">demo3</text>
</g>
<!-- admin&#45;&gt;demo3 -->
<g id="edge6" class="edge"><title>admin&#45;&gt;demo3</title>
<path fill="none" stroke="black" d="M196.48,-151.307C211.695,-140.685 232,-126.509 248.78,-114.795"/>
<polygon fill="black" stroke="black" points="250.991,-117.52 257.187,-108.926 246.984,-111.78 250.991,-117.52"/>
</g>
<!-- demo4 -->
<g id="node10" class="node"><title>demo4</title>
<ellipse fill="none" stroke="black" cx="227" cy="-19" rx="44.0472" ry="18.3848"/>
<text text-anchor="middle" x="227" y="-15.4" font-family="Times Roman,serif" font-size="14.00">demo4</text>
</g>
<!-- demo3&#45;&gt;demo4 -->
<g id="edge8" class="edge"><title>demo3&#45;&gt;demo4</title>
<path fill="none" stroke="black" d="M267.17,-75.0867C260.725,-66.088 252.795,-55.0151 245.687,-45.0919"/>
<polygon fill="black" stroke="black" points="248.38,-42.8403 239.712,-36.7484 242.689,-46.9163 248.38,-42.8403"/>
</g>
<!-- demo5 -->
<g id="node12" class="node"><title>demo5</title>
<ellipse fill="none" stroke="black" cx="333" cy="-19" rx="44.0472" ry="18.3848"/>
<text text-anchor="middle" x="333" y="-15.4" font-family="Times Roman,serif" font-size="14.00">demo5</text>
</g>
<!-- demo3&#45;&gt;demo5 -->
<g id="edge10" class="edge"><title>demo3&#45;&gt;demo5</title>
<path fill="none" stroke="black" d="M292.83,-75.0867C299.275,-66.088 307.205,-55.0151 314.313,-45.0919"/>
<polygon fill="black" stroke="black" points="317.311,-46.9163 320.288,-36.7484 311.62,-42.8403 317.311,-46.9163"/>
</g>
<!-- demo -->
<g id="node8" class="node"><title>demo</title>
<ellipse fill="none" stroke="black" cx="271" cy="-167" rx="38.1838" ry="18.3848"/>
<text text-anchor="middle" x="271" y="-163.4" font-family="Times Roman,serif" font-size="14.00">demo</text>
</g>
<!-- invisible_to_admin -->
<g id="node13" class="node"><title>invisible_to_admin</title>
<ellipse fill="none" stroke="black" cx="428" cy="-167" rx="101.116" ry="18.3848"/>
<text text-anchor="middle" x="428" y="-163.4" font-family="Times Roman,serif" font-size="14.00">invisible_to_admin</text>
</g>
<!-- service -->
<g id="node14" class="node"><title>service</title>
<ellipse fill="none" stroke="black" cx="593" cy="-167" rx="45.9619" ry="18.3848"/>
<text text-anchor="middle" x="593" y="-163.4" font-family="Times Roman,serif" font-size="14.00">service</text>
</g>
<!-- test_tenant -->
<g id="node15" class="node"><title>test_tenant</title>
<ellipse fill="none" stroke="black" cx="726" cy="-167" rx="68.7979" ry="18.3848"/>
<text text-anchor="middle" x="726" y="-163.4" font-family="Times Roman,serif" font-size="14.00">test_tenant</text>
</g>
</g>
</svg>
