<?xml version="1.0" encoding="UTF-8" standalone="no"?>
<!DOCTYPE svg PUBLIC "-//W3C//DTD SVG 1.1//EN"
 "http://www.w3.org/Graphics/SVG/1.1/DTD/svg11.dtd">
<!-- Generated by graphviz version 2.26.3 (20100126.1600)
 -->
<!-- Title: _anonymous_0 Pages: 1 -->
<svg width="909pt" height="194pt"
 viewBox="0.00 0.00 909.00 194.00" xmlns="http://www.w3.org/2000/svg" xmlns:xlink="http://www.w3.org/1999/xlink">
<g id="graph1" class="graph" transform="scale(1 1) rotate(0) translate(4 190)">
<title>_anonymous_0</title>
<polygon fill="white" stroke="white" points="-4,5 -4,-190 906,-190 906,5 -4,5"/>
<!-- admin -->
<g id="node1" class="node"><title>admin</title>
<ellipse fill="none" stroke="black" cx="41" cy="-167" rx="41.2167" ry="18.3848"/>
<text text-anchor="middle" x="41" y="-163.4" font-family="Times Roman,serif" font-size="14.00">admin</text>
</g>
<!-- alt_demo -->
<g id="node2" class="node"><title>alt_demo</title>
<ellipse fill="none" stroke="black" cx="156" cy="-167" rx="56.0679" ry="18.3848"/>
<text text-anchor="middle" x="156" y="-163.4" font-family="Times Roman,serif" font-size="14.00">alt_demo</text>
</g>
<!-- demo -->
<g id="node3" class="node"><title>demo</title>
<ellipse fill="none" stroke="black" cx="268" cy="-167" rx="38.1838" ry="18.3848"/>
<text text-anchor="middle" x="268" y="-163.4" font-family="Times Roman,serif" font-size="14.00">demo</text>
</g>
<!-- demo3 -->
<g id="node5" class="node"><title>demo3</title>
<ellipse fill="none" stroke="black" cx="268" cy="-93" rx="44.0472" ry="18.3848"/>
<text text-anchor="middle" x="268" y="-89.4" font-family="Times Roman,serif" font-size="14.00">demo3</text>
</g>
<!-- demo&#45;&gt;demo3 -->
<g id="edge2" class="edge"><title>demo&#45;&gt;demo3</title>
<path fill="none" stroke="black" d="M268,-148.327C268,-140.264 268,-130.648 268,-121.711"/>
<polygon fill="black" stroke="black" points="271.5,-121.667 268,-111.667 264.5,-121.667 271.5,-121.667"/>
</g>
<!-- demo2 -->
<g id="node6" class="node"><title>demo2</title>
<ellipse fill="none" stroke="black" cx="371" cy="-167" rx="44.0472" ry="18.3848"/>
<text text-anchor="middle" x="371" y="-163.4" font-family="Times Roman,serif" font-size="14.00">demo2</text>
</g>
<!-- demo2&#45;&gt;demo3 -->
<g id="edge4" class="edge"><title>demo2&#45;&gt;demo3</title>
<path fill="none" stroke="black" d="M348.651,-150.943C334.073,-140.47 314.85,-126.659 298.828,-115.148"/>
<polygon fill="black" stroke="black" points="300.469,-112.018 290.306,-109.026 296.385,-117.703 300.469,-112.018"/>
</g>
<!-- demo4 -->
<g id="node9" class="node"><title>demo4</title>
<ellipse fill="none" stroke="black" cx="374" cy="-93" rx="44.0472" ry="18.3848"/>
<text text-anchor="middle" x="374" y="-89.4" font-family="Times Roman,serif" font-size="14.00">demo4</text>
</g>
<!-- demo2&#45;&gt;demo4 -->
<g id="edge6" class="edge"><title>demo2&#45;&gt;demo4</title>
<path fill="none" stroke="black" d="M371.757,-148.327C372.084,-140.264 372.474,-130.648 372.836,-121.711"/>
<polygon fill="black" stroke="black" points="376.335,-121.801 373.243,-111.667 369.341,-121.517 376.335,-121.801"/>
</g>
<!-- demo5 -->
<g id="node11" class="node"><title>demo5</title>
<ellipse fill="none" stroke="black" cx="374" cy="-19" rx="44.0472" ry="18.3848"/>
<text text-anchor="middle" x="374" y="-15.4" font-family="Times Roman,serif" font-size="14.00">demo5</text>
</g>
<!-- demo4&#45;&gt;demo5 -->
<g id="edge8" class="edge"><title>demo4&#45;&gt;demo5</title>
<path fill="none" stroke="black" d="M374,-74.3267C374,-66.2639 374,-56.6477 374,-47.7115"/>
<polygon fill="black" stroke="black" points="377.5,-47.6673 374,-37.6674 370.5,-47.6674 377.5,-47.6673"/>
</g>
<!-- invisible_to_admin -->
<g id="node12" class="node"><title>invisible_to_admin</title>
<ellipse fill="none" stroke="black" cx="534" cy="-167" rx="101.116" ry="18.3848"/>
<text text-anchor="middle" x="534" y="-163.4" font-family="Times Roman,serif" font-size="14.00">invisible_to_admin</text>
</g>
<!-- service -->
<g id="node13" class="node"><title>service</title>
<ellipse fill="none" stroke="black" cx="699" cy="-167" rx="45.9619" ry="18.3848"/>
<text text-anchor="middle" x="699" y="-163.4" font-family="Times Roman,serif" font-size="14.00">service</text>
</g>
<!-- test_tenant -->
<g id="node14" class="node"><title>test_tenant</title>
<ellipse fill="none" stroke="black" cx="832" cy="-167" rx="68.7979" ry="18.3848"/>
<text text-anchor="middle" x="832" y="-163.4" font-family="Times Roman,serif" font-size="14.00">test_tenant</text>
</g>
</g>
</svg>
